# xmcd
# 
# Track frame offsets:
#     150
#     16428
#     31066
#     47294
# 
# Disc length: 825
# 
# Revision: 1
# Processed by: cddbd v1.5.2PL0 Copyright (c) Steve Scherf et al.
# Submitted via: fre:ac v1.0.17
# 
DISCID=20033704
DTITLE=ももいろクローバーZ - stay gold
DYEAR=2019
DGENRE=JPop
TTITLE0=stay gold
TTITLE1=HOLIDAY
TTITLE2=stay gold(off vocal ver.)
TTITLE3=HOLIDAY(off vocal ver.)
EXTD=
EXTT0=
EXTT1=
EXTT2=
EXTT3=
PLAYORDER=
